<?xml version="1.0" encoding="UTF-8"?><svg id="Layer_2" xmlns="http://www.w3.org/2000/svg" viewBox="0 0 2146.5 694.5"><g id="Layer_1-2"><path d="M1262.4,573.1c-7.4,11.9-41.7,0-41.7,0-58.3,0-77.4-90.6-107.6-88.4-29.2,2.1-45.2,97.2-100.3,97.2s-74.9-4.5-87.4-41.1c-3.8-10.9-13.9-8-14.9,4.4,0,0,1.1,23.2-2.2,27.9-16.7,23.6-74.7,27.7-88.7,0s-.4-.8-.6-1.3c-4.7-12.8-15.2-15.8-22.7-7.1-9.6,11.3-21.4,17.2-34.6,17.2-24.7,0-41.7-50.8-57.6-38.4-3.5,2.7-5.9,7.9-6.9,13.9-13.4,79.8-30.4,128.4-106.3,128.4s-96.7-128.6-104.6-112.7c-13.8,28-75.1,28.2-88.7,0-6.1-12.7,9.8-61.7,0-64.1-29.8-7.1-30,72.9-57.9,72.9-40.8,0-41.7-41.5-56.4-35.4s-1.5,24.2-4.7,30.2c-16.1,30.4-82.1,29.1-99.2-3.6-9.7-18.5,9.9-90.2-4.6-96.5s-26.3,79.7-41.2,96.5c-21.7,24.4-88.4,31.8-106,0C-28.7,472,8.7,124.7,72.1,35.4c31.7-44.7,139.9-49.6,168.7,0,6.6,11.4,110.4,127.7,125.6,156.6,11.4,21.6,17.5,21.6,28.8,0,15.2-28.9,71.9-60.9,91-38.7,1.6,1.8,13.4,28.6,18.8,19.4,10.9-18.3,26-27.5,44.9-27.5,27.5,0,27.8,79.7,57.5,72.9,10-2.3-6.2-52,0-64.8,13.6-28.2,88.7,0,88.7,0h1.3l.8-.5s73.4-8.1,89.3,17.5,17.8,20.5,30.7-.1c16.1-25.7,74.6-43.6,90-16.9s-2.5,52.9,0,69.9,3.5,12.6,5.8,11.8c38.5-14.7,46.3-89.8,98.8-89.8s58.1,45.8,85.1,50.5c2.6.5,2.8-35.4,8.2-42.4,5-6.5,20.8,6.6,25.8,0,9.2-12.2-6.5-60.6,0-76.6,12.3-30.4,71.3-50.4,88.7-27.3s-10.1,83.5,0,103.9c6.5,13.1,35.7,13.8,41.7,0s-1.3-15.4-1-20.6c4.3-67.8,48.8-105.4,113.5-105.4s71.4,98.4,113.5,105.4c9.9,1.6,15.3-46.7,19-56,12.2-30.6,73-53.3,88.7-27.3s-11.4,85.5,0,103.9c2.1,3.4,119,6.1,121,15.7,6.2,30,22.6,18,37.2-3.3,12-17.6,49.8-.8,64.4-12.3,5.5-4.3,12.4-23,13.7-32.6,3.3-24.1-10.5-80.8,0-98.9,15-26,75.5-29,88.3,0s-10.3,140.9,0,183.8,7.4,13.2,10.6,12c32.9-12.9,47.2-72.4,94-72.4,70.4,0,98.3,53.6,105.4,159.8s9,66.4,0,80.3c-16.3,25.4-91.2-5.4-88.7,30.9s71.5-16.6,88.7,5.9c51.9,67.7-35,159.8-105.4,159.8s-103.2-68.3-104.6-64.2c-4.2,12.1,5.5,44.7,0,55.4-14,27.4-71.1,22.3-88.3,0-5.4-7-4.5-32.9-6-43.9-2.6-19.2-18.3,2.9-20.7,10.8-30.4,97.3-65.8,133.7-98.3,145.8-15.7,5.9-51.9,16.2-64.6,0-9.8-12.6-9.8-68.4,0-81,4.6-5.9,19.8,7.3,23.6,0,11.2-21.4-12.1-110.6-28.6-101.9-10.4,5.5,7.7,57.8,0,70.2s-41.7,0-41.7,0c-59.1,0-62.2-35.7-89.8-136.6s-9.9-13.3-15.4-7.8c-49.1,49-37.2,153.3-116,153.3s-71.7-79.2-100.4-62c-8.2,4.9,1.4,31.4-12.1,53.2Z"/></g></svg>