<?xml version="1.0" encoding="UTF-8"?><svg id="Layer_2" xmlns="http://www.w3.org/2000/svg" viewBox="0 0 15364.3 3218.9"><g id="Layer_4"><g opacity=".2"><path d="M1809,2518V764.8h581.1l4.8-109.6L1788.9,8.2l-775.3,36.4h-209.9c-240.4,0-430,87.2-562,232.7C85.9,437.1,8,673.4,8,942.5s50.8,447.1,111.7,578H35.1v1043.4l602.6,647.1h1029.3c247.1,0,453.7-80,595.9-229,3.4-3.6,6.7-7.3,10-11h-42l-421.8-452.9Z" fill="#fff" stroke="#000" stroke-miterlimit="10" stroke-width="16"/><path d="M2390.1,764.8l-49.4,1122.8c81.2,130.9,125.3,290.8,125.3,494.4s-67.5,447.8-193.2,588.9h1211.6l-421.8-452.9,307.6-1604.4-139.4-148.8h-840.8Z" fill="#fff" stroke="#000" stroke-miterlimit="10" stroke-width="16"/><polygon points="4932.3 2877.5 4510.5 2424.6 4522.4 1205.8 4516.9 1000.7 4266.4 731.8 3394.4 787.7 3370.2 913.6 3655 1217.8 3600.5 2019.3 3408.6 2019.3 3657.4 2299.2 3598.2 2971 5050.8 2971 5031.8 2877.5 4932.3 2877.5" fill="#fff" stroke="#000" stroke-miterlimit="10" stroke-width="16"/><polygon points="5031.8 2877.5 6133.4 2877.5 5754.3 2470.4 6068.3 832.6 5918.1 671.4 4508.1 671.4 4516.9 1000.7 4688.2 1184.7 5031.8 2877.5" fill="#fff" stroke="#000" stroke-miterlimit="10" stroke-width="16"/><path d="M8493.7,2765.6l-421.8-452.9c-92.4-99.2-149.3-236.6-149.3-419.8V732.5h298.1l-15.3-75.4L7602.7,10l-1245.9,80-160,834.3,271.6,291.7-7.1,1753.2h-199.4l223.5,240h2237.9l-65.9-324.7c-61.5-29.2-117-68.7-163.7-118.9Z" fill="#fff" stroke="#000" stroke-miterlimit="10" stroke-width="16"/><path d="M9460.8,2318.3c-151.7-162.9-201.4-417.3-201.4-681.9s50.2-533.7,211-714.9l-166-178.3h-1138l436.8,2152c91.2,43.4,195.5,64.3,303.1,64.3h201.4c182.5,0,353.1-58.5,469.2-183.2,52.2-56.1,93.1-124.4,118.8-205.8l-234.9-252.2Z" fill="#fff" stroke="#000" stroke-miterlimit="10" stroke-width="16"/><path d="M10780.3,1898.7V738.4h28.6l-33.2-35.6-625.6,68.7h-170.6c-199.1,0-343.6,68.7-445.5,178.1-3.2,3.4-6.3,6.8-9.3,10.3l255.8,274.7v1162.9c0,78.6-10.8,148.9-30.5,211.5l186.9,200.7c92.4,99.2,222.8,162.9,400.5,175.6l142.2,152.7,703.8-73.8,3.5-469.4-257.2-276.2c-92.4-99.2-149.3-236.6-149.3-419.8Z" fill="#fff" stroke="#000" stroke-miterlimit="10" stroke-width="16"/><path d="M12225.8,2520.2v-730.3h59.2c-42.7-91.6-78.2-223.9-78.2-404.6s52.5-347.6,157.5-459.4l-148-159h-1407.5l388.6,417.3-10.7,1439,164.6,176.8c116.1,124.7,286.7,183.2,466.8,183.2h201.4c181.8,0,351.9-58.1,468-181.9l-261.9-281.2Z" fill="#fff" stroke="#000" stroke-miterlimit="10" stroke-width="16"/><path d="M13801.7,2206.6l-374.4-402v-987.3h59.4l-33.4-35.6-542.7,25.5h-146.9c-168.3,0-301,61.1-393.4,162.9-2,2.1-4,4.2-6,6.3l273.8,294v1162.9c0,180.7-56.9,318.1-149.3,417.3-.4.4-.8.8-1.2,1.3l160,171.8h720.4c173,0,317.6-56,417.1-160.3,49-52.6,86.1-116.7,110-192.3l-93.4-100.3v-363.9Z" fill="#fff" stroke="#000" stroke-miterlimit="10" stroke-width="16"/><path d="M14934.5,817.2h-1447.7l390.8,417.3-37.9,862.6c56.9,91.6,87.7,203.6,87.7,346s-11,160.7-32.2,227.5l328.4,352.6h758.3v-844.8l374.4,81.5v-989.9l-421.8-452.9Z" fill="#fff" stroke="#000" stroke-miterlimit="10" stroke-width="16"/></g></g></svg>